<svg xmlns="http://www.w3.org/2000/svg" width="1024" height="1024" viewBox="0 0 1024 1024" role="img" aria-labelledby="title">
  <title>Vanille &amp; Compagnie</title>
  <rect width="1024" height="1024" fill="#adc2ab"/>
  <path d="M0 0h1024v1024H0z" fill="#adc2ab"/>
  <g fill="#f6ece6" text-anchor="middle">
    <path d="M270 624c20-26 45-40 72-40 29 0 45 18 45 48 0 17-5 40-13 69-11 39-16 62-16 69 0 12 5 18 14 18 10 0 22-9 36-26 13-16 28-43 46-82 8-18 17-27 27-27 7 0 12 4 16 10 4 7 6 16 6 28 0 35-8 74-23 117 33-52 56-96 69-133 10-29 20-44 31-44 7 0 12 4 15 10 4 6 6 14 6 24 0 20-8 48-23 84-16 37-35 71-58 102-31 44-59 66-84 66-18 0-30-8-36-25-6-17-5-41 5-74l9-29-16 21c-32 42-62 63-88 63-17 0-31-6-42-18-11-12-17-29-17-49 0-51 18-105 54-162zm53 125c7 0 18-8 31-25 16-19 30-45 43-78 14-34 21-55 21-63 0-11-5-16-15-16-13 0-27 10-42 29-17 21-30 46-40 76-10 29-15 50-15 61 0 11 5 16 17 16z" opacity=".22"/>
    <text x="512" y="350" font-size="62" font-family="Avenir Next, Helvetica Neue, Arial, sans-serif" letter-spacing="2">GLACES ARTISANALES</text>
    <text x="512" y="565" font-size="190" font-family="Snell Roundhand, Brush Script MT, Apple Chancery, cursive" font-weight="600">Vanille</text>
    <text x="512" y="675" font-size="108" font-family="Snell Roundhand, Brush Script MT, Apple Chancery, cursive">&amp;</text>
    <text x="512" y="845" font-size="190" font-family="Snell Roundhand, Brush Script MT, Apple Chancery, cursive" font-weight="600">Compagnie</text>
  </g>
</svg>
